<svg width="63" height="24" viewBox="0 0 63 24" fill="none" xmlns="http://www.w3.org/2000/svg">
<g clip-path="url(#clip0_2730_21745)">
<rect width="63" height="24" fill="black"/>
<path d="M15.4472 13.9741C15.4472 14.5135 15.3144 14.9782 15.0489 15.3681C14.7875 15.7581 14.41 16.0568 13.9163 16.2643C13.4267 16.4717 12.8418 16.5754 12.1614 16.5754C11.8295 16.5754 11.5121 16.5568 11.2092 16.5194C10.9064 16.4821 10.6201 16.4282 10.3504 16.3576C10.0849 16.283 9.84219 16.1938 9.6223 16.09V14.6836C9.99154 14.8454 10.4043 14.9927 10.8607 15.1254C11.3171 15.2541 11.7817 15.3184 12.2547 15.3184C12.6405 15.3184 12.96 15.2686 13.2131 15.169C13.4703 15.0653 13.6612 14.9201 13.7856 14.7334C13.9101 14.5425 13.9723 14.3206 13.9723 14.0675C13.9723 13.7978 13.8997 13.5696 13.7545 13.3829C13.6093 13.1962 13.3894 13.0261 13.0948 12.8726C12.8044 12.715 12.4393 12.547 11.9996 12.3686C11.7008 12.2483 11.4146 12.1113 11.1408 11.9578C10.8711 11.8043 10.6305 11.6239 10.4189 11.4164C10.2073 11.209 10.0393 10.9642 9.91479 10.6821C9.79447 10.3958 9.73432 10.0598 9.73432 9.67392C9.73432 9.15947 9.85671 8.7197 10.1015 8.35461C10.3504 7.98951 10.6989 7.70947 11.147 7.51447C11.5992 7.31948 12.1261 7.22198 12.7277 7.22198C13.2048 7.22198 13.6529 7.27177 14.0719 7.37134C14.4951 7.47091 14.9099 7.61197 15.3165 7.79452L14.8436 8.99559C14.4702 8.84209 14.1071 8.7197 13.7545 8.62843C13.406 8.53715 13.0492 8.49152 12.6841 8.49152C12.3688 8.49152 12.1012 8.53923 11.8813 8.63465C11.6614 8.73007 11.4934 8.86491 11.3772 9.03916C11.2652 9.20926 11.2092 9.41255 11.2092 9.64903C11.2092 9.91455 11.2735 10.1386 11.4021 10.3211C11.5349 10.4995 11.7382 10.6634 12.012 10.8128C12.29 10.9621 12.6468 11.1281 13.0824 11.3106C13.5844 11.5181 14.0096 11.7359 14.3581 11.9641C14.7108 12.1922 14.9805 12.4661 15.1672 12.7855C15.3539 13.1008 15.4472 13.497 15.4472 13.9741Z" fill="white"/>
<path d="M17.2021 16.451V7.35267H18.6957V16.451H17.2021Z" fill="white"/>
<path d="M28.6902 16.451H26.8543L22.3985 9.18851H22.3425C22.3591 9.43329 22.3736 9.69259 22.3861 9.96641C22.4027 10.2402 22.4151 10.5224 22.4234 10.8128C22.4359 11.1032 22.4462 11.3977 22.4545 11.6965V16.451H21.0979V7.35267H22.9213L27.3708 14.5654H27.4144C27.4061 14.3538 27.3957 14.1111 27.3833 13.8372C27.3708 13.5634 27.3584 13.2813 27.346 12.9909C27.3377 12.6963 27.3314 12.4121 27.3273 12.1383V7.35267H28.6902V16.451Z" fill="white"/>
<path d="M31.0799 16.451V7.35267H32.5734V16.451H31.0799Z" fill="white"/>
<path d="M34.6146 15.6793C34.6146 15.3391 34.7018 15.1005 34.876 14.9636C35.0544 14.8226 35.2701 14.752 35.5232 14.752C35.7763 14.752 35.992 14.8226 36.1704 14.9636C36.353 15.1005 36.4443 15.3391 36.4443 15.6793C36.4443 16.0112 36.353 16.2518 36.1704 16.4012C35.992 16.5464 35.7763 16.619 35.5232 16.619C35.2701 16.619 35.0544 16.5464 34.876 16.4012C34.7018 16.2518 34.6146 16.0112 34.6146 15.6793Z" fill="white"/>
<path d="M38.473 16.451V7.35267H39.9666V15.1814H43.8312V16.451H38.473Z" fill="white"/>
<path d="M51.0439 16.451L50.154 13.9244H46.6752L45.7853 16.451H44.2108L47.5962 7.31533H49.2516L52.6308 16.451H51.0439ZM49.7681 12.6424L48.9031 10.1531C48.8699 10.0452 48.8222 9.89381 48.76 9.69882C48.6977 9.49967 48.6355 9.29846 48.5733 9.09517C48.511 8.88773 48.4592 8.71348 48.4177 8.57242C48.3762 8.74252 48.3243 8.93336 48.2621 9.14495C48.204 9.35239 48.1459 9.54738 48.0879 9.72993C48.0339 9.91248 47.9924 10.0535 47.9634 10.1531L47.0921 12.6424H49.7681Z" fill="white"/>
</g>
<defs>
<clipPath id="clip0_2730_21745">
<rect width="63" height="24" fill="white"/>
</clipPath>
</defs>
</svg>
